<svg xmlns="http://www.w3.org/2000/svg" xmlns:xlink="http://www.w3.org/1999/xlink" width="500" zoomAndPan="magnify" viewBox="0 0 375 374.999991" height="500" preserveAspectRatio="xMidYMid meet" version="1.0"><defs><clipPath id="id1"><path d="M 64.886719 64.886719 L 310.136719 64.886719 L 310.136719 310.136719 L 64.886719 310.136719 Z M 64.886719 64.886719 " clip-rule="nonzero"/></clipPath></defs><g clip-path="url(#id1)"><path fill="#31d638" d="M 273.148438 167.664062 L 270.695312 173.792969 C 271.148438 174.078125 271.398438 174.476562 271.277344 174.777344 C 271.167969 175.054688 270.777344 175.175781 270.304688 175.113281 C 270.394531 175.914062 270.101562 177.347656 269.484375 178.890625 C 268.601562 181.09375 266.789062 182.4375 266.789062 182.4375 C 266.789062 182.4375 266.40625 180.214844 267.285156 178.011719 C 267.902344 176.46875 268.679688 175.230469 269.296875 174.707031 C 268.914062 174.429688 268.710938 174.074219 268.820312 173.796875 C 268.941406 173.492188 269.394531 173.378906 269.921875 173.480469 L 272.277344 167.597656 L 260.53125 166.671875 L 255.628906 178.933594 L 255.550781 178.902344 C 255.277344 180.378906 254.855469 181.863281 254.265625 183.332031 C 250.167969 193.574219 239.832031 199.074219 231.175781 195.613281 C 222.519531 192.148438 218.824219 181.039062 222.917969 170.796875 C 223.503906 169.328125 224.222656 167.960938 225.042969 166.703125 L 224.96875 166.671875 L 228.347656 158.21875 L 204.519531 148.6875 L 245.054688 151.871094 L 287.328125 168.777344 Z M 187.519531 110.144531 L 176.714844 117.996094 L 180.84375 105.289062 L 170.035156 97.441406 L 183.394531 97.441406 L 187.519531 84.734375 L 191.648438 97.441406 L 205.007812 97.441406 L 194.199219 105.289062 L 198.328125 117.996094 Z M 146.695312 158.21875 L 150.078125 166.671875 L 150 166.703125 C 150.820312 167.960938 151.539062 169.328125 152.125 170.796875 C 156.222656 181.039062 152.523438 192.148438 143.867188 195.613281 C 135.210938 199.074219 124.871094 193.574219 120.777344 183.332031 C 120.1875 181.863281 119.765625 180.378906 119.492188 178.902344 L 119.417969 178.933594 L 114.511719 166.671875 L 102.765625 167.597656 L 105.121094 173.480469 C 105.648438 173.378906 106.101562 173.492188 106.222656 173.796875 C 106.332031 174.074219 106.128906 174.429688 105.746094 174.707031 C 106.363281 175.230469 107.140625 176.46875 107.757812 178.011719 C 108.640625 180.214844 108.253906 182.4375 108.253906 182.4375 C 108.253906 182.4375 106.441406 181.09375 105.558594 178.890625 C 104.941406 177.347656 104.648438 175.914062 104.738281 175.113281 C 104.269531 175.175781 103.875 175.054688 103.765625 174.777344 C 103.644531 174.476562 103.894531 174.078125 104.347656 173.792969 L 101.894531 167.664062 L 87.714844 168.777344 L 129.988281 151.871094 L 170.523438 148.6875 Z M 187.523438 64.898438 C 119.796875 64.898438 64.894531 119.796875 64.894531 187.523438 C 64.894531 234.734375 91.582031 275.710938 130.691406 296.203125 C 131.339844 276.671875 129.367188 258.152344 124.734375 241.609375 C 119.425781 222.640625 110.988281 207.097656 100.105469 195.792969 C 100.234375 195.851562 100.359375 195.910156 100.484375 195.96875 C 130.640625 210.101562 166.347656 215.589844 183.613281 129.316406 C 183.613281 129.316406 194.488281 216.675781 145.855469 302.882812 C 158.863281 307.582031 172.894531 310.148438 187.523438 310.148438 C 202.152344 310.148438 216.179688 307.582031 229.1875 302.882812 C 180.554688 216.675781 191.429688 129.316406 191.429688 129.316406 C 208.695312 215.589844 244.402344 210.101562 274.558594 195.96875 C 274.6875 195.910156 274.808594 195.851562 274.941406 195.792969 C 264.054688 207.097656 255.621094 222.640625 250.308594 241.609375 C 245.679688 258.152344 243.703125 276.671875 244.351562 296.203125 C 283.460938 275.710938 310.148438 234.734375 310.148438 187.523438 C 310.148438 119.796875 255.246094 64.898438 187.523438 64.898438 " fill-opacity="1" fill-rule="nonzero"/></g></svg>